<?xml version="1.0" standalone="no"?>
<!DOCTYPE svg PUBLIC "-//W3C//DTD SVG 20010904//EN"
 "http://www.w3.org/TR/2001/REC-SVG-20010904/DTD/svg10.dtd">
<svg version="1.0" xmlns="http://www.w3.org/2000/svg"
 width="256.000000pt" height="256.000000pt" viewBox="0 0 256.000000 256.000000"
 preserveAspectRatio="xMidYMid meet">

<g transform="translate(0.000000,256.000000) scale(0.100000,-0.100000)"
fill="#000000" stroke="none">
<path d="M1252 2408 c-9 -9 -12 -74 -12 -233 l0 -220 -128 -128 -127 -127
-401 0 c-309 0 -404 -3 -411 -12 -16 -19 -173 -379 -173 -394 0 -16 31 -34 59
-34 21 0 21 -1 21 -520 0 -519 0 -520 -21 -520 -49 0 -76 -39 -47 -68 9 -9
304 -12 1268 -12 964 0 1259 3 1268 12 29 29 2 68 -47 68 -21 0 -21 1 -21 520
0 519 0 520 21 520 28 0 59 18 59 34 0 15 -157 375 -173 394 -7 9 -102 12
-411 12 l-401 0 -128 128 -127 127 0 93 0 92 124 0 c160 0 156 -4 156 144 0
74 -4 116 -12 124 -8 8 -60 12 -168 12 -108 0 -160 -4 -168 -12z m268 -128 l0
-60 -100 0 -100 0 0 60 0 60 100 0 100 0 0 -60z m75 -710 l310 -310 156 0
c168 0 184 5 177 52 -3 23 -5 23 -149 26 l-146 3 -144 139 -144 139 341 0 341
1 38 -87 c21 -49 48 -112 61 -140 l23 -53 -58 0 c-56 0 -81 -11 -81 -36 0 -21
30 -44 56 -44 l24 0 0 -520 0 -520 -380 0 -380 0 0 64 c0 71 -14 96 -56 96
l-24 0 0 170 c0 157 -1 170 -19 180 -26 14 -496 14 -522 0 -18 -10 -19 -23
-19 -180 l0 -170 -24 0 c-42 0 -56 -25 -56 -96 l0 -64 -380 0 -380 0 0 520 0
520 248 0 247 0 310 310 c170 171 312 310 315 310 3 0 145 -139 315 -310z
m-834 -91 l-145 -139 -253 0 c-139 0 -253 3 -253 8 0 4 25 67 56 140 l57 132
341 -1 341 0 -144 -140z m479 -959 l0 -140 -80 0 -80 0 0 140 0 140 80 0 80 0
0 -140z m240 0 l0 -140 -80 0 -80 0 0 140 0 140 80 0 80 0 0 -140z m80 -260
l0 -40 -280 0 -280 0 0 40 0 40 280 0 280 0 0 -40z"/>
<path d="M1197 1486 c-171 -63 -244 -244 -161 -397 53 -96 133 -144 244 -144
112 0 190 47 245 147 26 45 30 64 30 128 0 64 -4 83 -30 128 -32 59 -67 92
-129 124 -51 26 -148 33 -199 14z m161 -81 c49 -21 81 -52 103 -100 35 -75 16
-179 -42 -232 -75 -69 -203 -69 -278 0 -76 70 -80 208 -8 286 52 56 151 76
225 46z"/>
<path d="M1305 1273 c-61 -32 -65 -36 -65 -95 0 -44 17 -78 40 -78 19 0 40 34
40 65 0 24 5 35 18 39 22 7 62 43 62 56 0 10 -29 40 -38 40 -4 -1 -29 -13 -57
-27z"/>
<path d="M252 1128 c-17 -17 -17 -279 0 -296 9 -9 91 -12 310 -12 284 0 298 1
308 19 5 11 10 76 10 145 0 100 -3 128 -16 140 -13 14 -55 16 -308 16 -214 0
-295 -3 -304 -12z m268 -148 l0 -80 -100 0 -100 0 0 80 0 80 100 0 100 0 0
-80z m280 0 l0 -80 -100 0 -100 0 0 80 0 80 100 0 100 0 0 -80z"/>
<path d="M1696 1124 c-13 -12 -16 -40 -16 -140 0 -69 5 -134 10 -145 10 -18
24 -19 308 -19 219 0 301 3 310 12 17 17 17 279 0 296 -9 9 -90 12 -304 12
-253 0 -295 -2 -308 -16z m264 -144 l0 -80 -100 0 -100 0 0 80 0 80 100 0 100
0 0 -80z m280 0 l0 -80 -100 0 -100 0 0 80 0 80 100 0 100 0 0 -80z"/>
<path d="M252 728 c-17 -17 -17 -279 0 -296 7 -7 38 -12 70 -12 48 0 59 3 68
21 15 26 -12 59 -47 59 -22 0 -23 3 -23 80 l0 80 100 0 100 0 0 -80 c0 -69 -3
-81 -20 -90 -22 -12 -26 -40 -8 -58 17 -17 359 -17 376 0 8 8 12 55 12 144 0
107 -3 136 -16 148 -13 14 -55 16 -308 16 -214 0 -295 -3 -304 -12z m548 -148
l0 -80 -100 0 -100 0 0 80 0 80 100 0 100 0 0 -80z"/>
<path d="M1696 724 c-13 -12 -16 -41 -16 -148 0 -89 4 -136 12 -144 17 -17
599 -17 616 0 17 17 17 279 0 296 -9 9 -90 12 -304 12 -253 0 -295 -2 -308
-16z m264 -144 l0 -80 -100 0 -100 0 0 80 0 80 100 0 100 0 0 -80z m280 0 l0
-80 -100 0 -100 0 0 80 0 80 100 0 100 0 0 -80z"/>
</g>
</svg>
